PathFileType	4	(X/Y/Z)	Kaydara																																																																																																																									
DataRate	CameraRate	NumFrames	NumMarkers	Units	OrigDataRate	OrigDataStartFrame	OrigNumFrames																																																																																																																					
30	30	6	41	mm	30	1	151																																																																																																																					
Frame#	Time	SALE_LFHD			SALE_RFHD			SALE_LBHD			SALE_RBHD			SALE_LFTShould			SALE_RFTShould			SALE_LRRShould			SALE_RRRShould			SALE_T10			SALE_STRN			SALE_TRUN			SALE_LSHO			SALE_LUPA			SALE_LELB			SALE_LFRM			SALE_LWRA			SALE_LWRB			SALE_LFIN			SALE_RSHO			SALE_RUPA			SALE_RELB			SALE_RFRM			SALE_RWRB			SALE_RFIN			SALE_LFWT			SALE_RFWT			SALE_LBWT			SALE_RBWT			SALE_LTHI			SALE_LKNE			SALE_RWRA			SALE_LSHN			SALE_LANK			SALE_LHEE			SALE_LTOE			SALE_RTHI			SALE_RKNE			SALE_RSHN			SALE_RANK			SALE_RHEE			SALE_RTOE		
		X1	Y1	Z1	X2	Y2	Z2	X3	Y3	Z3	X4	Y4	Z4	X5	Y5	Z5	X6	Y6	Z6	X7	Y7	Z7	X8	Y8	Z8	X9	Y9	Z9	X10	Y10	Z10	X11	Y11	Z11	X12	Y12	Z12	X13	Y13	Z13	X14	Y14	Z14	X15	Y15	Z15	X16	Y16	Z16	X17	Y17	Z17	X18	Y18	Z18	X19	Y19	Z19	X20	Y20	Z20	X21	Y21	Z21	X22	Y22	Z22	X23	Y23	Z23	X24	Y24	Z24	X25	Y25	Z25	X26	Y26	Z26	X27	Y27	Z27	X28	Y28	Z28	X29	Y29	Z29	X30	Y30	Z30	X31	Y31	Z31	X32	Y32	Z32	X33	Y33	Z33	X34	Y34	Z34	X35	Y35	Z35	X36	Y36	Z36	X37	Y37	Z37	X38	Y38	Z38	X39	Y39	Z39	X40	Y40	Z40	X41	Y41	Z41
																																																																																																																												
1	0.01	215.98291	1662.24594	-2007.35367	82.86518	1654.62646	-2009.25385	214.65488	1629.00864	-2137.80792	88.53073	1621.12656	-2131.87653	237.57595	1395.11292	-2015.58029	94.51173	1391.0733	-2014.40903	227.88601	1448.51944	-2131.99539	78.17059	1453.26218	-2121.21628	150.63614	1296.80328	-2197.35641	161.70467	1320.78018	-1966.99554	159.05983	1233.85269	-1927.19086	349.43115	1420.55008	-2089.66827	388.85521	1205.25612	-2117.64618	370.86006	1097.79198	-2140.62256	403.35796	992.7066	-2117.84348	354.753	855.04677	-2039.30328	411.81458	845.9684	-2087.3172	418.29475	805.39719	-2038.45459	-13.86532	1420.95291	-2075.91187	-44.95556	1195.87975	-2150.69748	-80.34353	1094.59801	-2114.15451	-73.95386	981.05431	-2124.49631	-99.33518	841.16005	-2079.67682	-119.21027	806.82053	-2028.23837	284.38007	976.46957	-1990.52704	4.64858	975.27016	-2004.48639	232.34964	1039.85924	-2160.8255	55.09363	1044.91531	-2167.82791	280.92403	678.11508	-2163.54828	269.58288	505.89695	-2090.85052	-65.12958	857.37366	-2018.4964	264.20025	308.09402	-2097.81769	257.09829	124.69616	-2150.53757	216.41081	76.01015	-2212.40997	233.18119	86.97908	-2015.68741	2.01791	724.40681	-2164.64401	21.93943	563.31108	-2064.58084	76.29807	375.11543	-2086.81488	33.84545	122.7151	-2143.8176	47.95691	78.14901	-2023.59802	77.08018	63.75546	-2214.95605
2	0.043	215.94202	1662.13196	-2006.62567	82.93908	1654.58862	-2008.53287	214.71209	1628.88916	-2137.1315	88.59224	1621.0498	-2131.16745	237.58989	1394.80164	-2014.91669	94.07214	1390.72464	-2014.42917	227.7771	1448.40729	-2131.46194	78.03917	1453.11401	-2120.72098	150.49752	1296.67099	-2196.91696	161.66437	1320.47531	-1966.55487	159.04699	1233.5611	-1926.86279	349.3589	1420.17975	-2089.22333	388.55263	1204.99039	-2117.94693	370.43354	1097.58232	-2141.12137	403.11504	992.4913	-2119.26743	354.79496	854.08592	-2041.69281	413.01651	846.83983	-2090.12329	418.29109	804.50584	-2041.22879	-13.9452	1420.69855	-2075.43732	-44.97683	1195.5851	-2150.19913	-80.33131	1094.32709	-2113.56857	-73.90927	980.69366	-2123.63464	-99.03809	840.97298	-2078.41309	-119.14068	806.80504	-2026.88934	284.32947	976.29829	-1990.46082	4.74137	975.16129	-2004.31183	232.42851	1039.96216	-2160.3421	55.16658	1045.00809	-2167.38205	281.02545	678.10242	-2163.40744	269.67194	505.93922	-2090.73303	-65.13905	857.33963	-2017.29431	264.23519	308.08844	-2097.77313	257.09494	124.68657	-2150.57098	216.40715	75.99387	-2212.42371	233.18192	86.99882	-2015.66132	2.13723	724.48769	-2164.56146	21.89388	563.22929	-2064.55826	76.32159	375.13908	-2086.77612	33.80544	122.70033	-2143.81439	47.94962	78.14041	-2023.60413	77.08758	63.72628	-2214.94873
3	0.077	215.97481	1662.02011	-2005.81894	83.01638	1654.51202	-2007.71301	214.76534	1629.01688	-2136.36536	88.61459	1621.23032	-2130.39993	235.4081	1394.47525	-2017.60101	94.61364	1390.59708	-2013.42255	227.59453	1448.29636	-2131.13083	77.90524	1453.04977	-2120.21439	150.26034	1296.5863	-2196.50024	161.61543	1320.21362	-1966.01715	159.22897	1233.39752	-1926.54633	349.89365	1419.49692	-2087.45697	388.27763	1204.83055	-2118.43155	370.02949	1097.43599	-2141.73218	403.87913	991.4859	-2118.81683	355.01846	853.40225	-2043.5527	413.00274	846.5126	-2092.32956	418.67584	803.91182	-2043.87573	-14.00182	1420.58365	-2074.82758	-45.09501	1195.45303	-2149.61136	-80.35911	1094.22272	-2112.92694	-73.90083	980.55626	-2122.77344	-98.99504	840.8754	-2077.00531	-118.87255	806.82167	-2025.5069	284.30227	976.16844	-1990.50598	4.7684	975.03204	-2003.9241	232.45522	1040.02655	-2159.95514	55.19962	1045.04814	-2166.96487	281.09411	678.09311	-2163.27377	269.7114	505.87624	-2090.64529	-64.88638	857.43904	-2016.14853	264.29192	308.03436	-2097.74643	257.17247	124.84278	-2150.17319	216.42172	76.02462	-2212.42554	233.17583	86.99373	-2015.65674	2.23299	724.45801	-2164.36966	21.97279	563.19843	-2064.50806	76.44178	375.1553	-2086.84357	33.8436	122.73623	-2143.79807	47.98732	78.12796	-2023.6087	77.0663	63.7503	-2214.9649
4	0.11	215.96958	1661.8576	-2004.92477	83.08589	1654.42795	-2006.7543	214.70591	1629.23859	-2135.57083	88.58874	1621.49551	-2129.54132	234.673	1393.3812	-2018.08121	94.56614	1390.33173	-2013.09662	227.40671	1448.1427	-2130.91873	77.72311	1452.92694	-2119.81079	149.97398	1296.46515	-2196.14304	161.7383	1320.07065	-1965.7695	159.3894	1233.24081	-1926.20148	349.73335	1419.21158	-2087.54761	387.99469	1204.64317	-2119.05518	369.68807	1097.34299	-2142.38083	403.79005	991.35788	-2119.98703	355.41019	852.8315	-2045.02914	413.09776	846.27373	-2094.02252	419.08543	803.52646	-2045.72144	-14.07972	1420.44006	-2074.28665	-45.23694	1195.28137	-2148.99368	-80.38004	1093.96095	-2112.11426	-73.82703	980.33966	-2121.82251	-98.72243	840.75851	-2075.71457	-118.46617	806.6954	-2024.18488	284.28471	976.08696	-1990.62195	4.89158	974.94003	-2003.27667	232.43046	1040.04372	-2159.66705	55.18387	1045.06981	-2166.61545	281.14231	678.08945	-2163.1131	269.69732	505.84629	-2090.59082	-64.47708	857.43721	-2014.90219	264.32407	307.95521	-2097.7298	257.1525	124.83931	-2150.18555	216.37905	76.01247	-2212.40479	233.17923	86.99263	-2015.66071	2.23008	724.41635	-2164.05685	22.07063	563.17352	-2064.3222	76.46149	375.07317	-2086.7009	33.84343	122.73425	-2143.74191	48.00959	78.12988	-2023.59802	77.06511	63.73857	-2214.93164
5	0.143	216.09076	1661.8045	-2004.03152	83.0593	1654.35989	-2005.28046	214.66032	1629.47922	-2134.74045	88.54355	1621.71906	-2128.59604	234.49295	1393.07159	-2018.21747	94.55805	1389.99603	-2012.88589	227.19908	1447.93777	-2130.81131	77.54167	1452.67593	-2119.48471	149.67778	1296.22345	-2195.84686	161.95328	1319.83597	-1965.62637	159.69126	1233.02361	-1925.83923	349.55933	1418.84247	-2087.97989	387.77367	1204.37965	-2119.82864	369.40132	1097.07848	-2143.18329	403.64761	991.054	-2120.85922	355.85606	852.43004	-2045.89233	413.3247	845.98618	-2095.12253	419.57447	803.22533	-2046.91605	-14.11918	1420.16632	-2073.9444	-45.32207	1194.88838	-2148.34351	-80.27903	1093.57948	-2111.24359	-73.67983	979.94606	-2120.8316	-98.50363	840.41145	-2074.49005	-118.05497	806.40373	-2022.82837	284.3335	976.01639	-1990.78751	5.06539	974.92447	-2002.86484	232.39168	1040.03212	-2159.52698	55.10555	1045.02808	-2166.24969	281.1059	678.09784	-2163.02353	269.73057	505.84923	-2090.52307	-64.17662	857.22595	-2013.80066	264.29781	308.01134	-2097.66281	257.15269	124.87439	-2150.12787	216.39467	76.01789	-2212.40372	233.1949	86.99468	-2015.66498	2.14875	724.38606	-2163.69949	22.16774	563.14899	-2064.05914	76.50596	375.09415	-2086.63162	33.84209	122.75513	-2143.71277	48.07898	78.11958	-2023.57101	77.068	63.778	-2214.91776
6	0.177	216.27138	1661.68152	-2003.18802	83.29288	1654.3541	-2004.39819	214.65853	1629.60403	-2134.03305	88.52855	1621.93497	-2127.60513	234.16897	1392.57767	-2018.45123	94.61699	1389.58374	-2012.84592	226.9482	1447.54318	-2130.86777	77.31986	1452.32224	-2119.41498	149.31546	1295.82443	-2195.62866	162.05959	1319.47388	-1965.47607	159.98284	1232.80464	-1925.58319	349.35318	1418.13034	-2088.55972	387.34188	1203.84201	-2120.87723	368.96488	1096.45721	-2143.97476	403.50632	990.5162	-2121.69357	356.39469	851.99738	-2046.09573	413.51349	845.47974	-2095.62546	420.12531	802.8756	-2047.38693	-14.21618	1419.78775	-2073.82523	-45.21837	1194.24217	-2147.83646	-80.08831	1093.04573	-2110.43076	-73.39551	979.37317	-2119.85199	-98.16318	840.03998	-2073.3255	-117.7695	806.00357	-2021.59012	284.43668	975.91576	-1990.91675	5.2873	974.80209	-2002.37656	232.3	1040.11497	-2159.37408	54.92303	1045.04601	-2165.79651	281.03762	678.08777	-2163.03268	269.74529	505.82809	-2090.55817	-63.79173	856.94618	-2012.53403	264.34454	307.92221	-2097.69775	257.14958	124.80934	-2150.23712	216.38966	76.00596	-2212.4176	233.19031	86.97954	-2015.672	1.99764	724.37477	-2163.31985	22.25314	563.08956	-2063.85895	76.4935	375.07084	-2086.56174	33.84772	122.70978	-2143.65707	48.11855	78.13789	-2023.56216	77.04329	63.7693	-2214.90814
